<svg width="72" height="82" viewBox="0 0 72 82" fill="none" xmlns="http://www.w3.org/2000/svg">
<g filter="url(#filter0_dd_1_12)">
<mask id="path-1-inside-1_1_12" fill="white">
<path d="M12 35.9755C12 22.7207 22.7452 11.9755 36 11.9755C49.2548 11.9755 60 22.7207 60 35.9755C60 49.2303 49.2548 59.9755 36 59.9755C22.7452 59.9755 12 49.2303 12 35.9755Z"/>
</mask>
<path d="M12 35.9755C12 22.7207 22.7452 11.9755 36 11.9755C49.2548 11.9755 60 22.7207 60 35.9755C60 49.2303 49.2548 59.9755 36 59.9755C22.7452 59.9755 12 49.2303 12 35.9755Z" fill="url(#paint0_linear_1_12)" shape-rendering="crispEdges"/>
<path d="M36 59.9755V55.9755C24.9543 55.9755 16 47.0212 16 35.9755H12H8C8 51.4395 20.536 63.9755 36 63.9755V59.9755ZM60 35.9755H56C56 47.0212 47.0457 55.9755 36 55.9755V59.9755V63.9755C51.464 63.9755 64 51.4395 64 35.9755H60ZM36 11.9755V15.9755C47.0457 15.9755 56 24.9298 56 35.9755H60H64C64 20.5115 51.464 7.97549 36 7.97549V11.9755ZM36 11.9755V7.97549C20.536 7.97549 8 20.5115 8 35.9755H12H16C16 24.9298 24.9543 15.9755 36 15.9755V11.9755Z" fill="white" mask="url(#path-1-inside-1_1_12)"/>
<path d="M28 37.9755C27.8108 37.9762 27.6252 37.9231 27.4649 37.8225C27.3047 37.7219 27.1762 37.5779 27.0945 37.4072C27.0129 37.2365 26.9813 37.0461 27.0035 36.8582C27.0257 36.6702 27.1008 36.4925 27.22 36.3455L37.12 26.1455C37.1943 26.0598 37.2955 26.0019 37.407 25.9812C37.5185 25.9606 37.6337 25.9785 37.7337 26.032C37.8337 26.0855 37.9126 26.1714 37.9573 26.2756C38.0021 26.3798 38.0101 26.4962 37.98 26.6055L36.06 32.6255C36.0034 32.777 35.9844 32.94 36.0046 33.1005C36.0248 33.261 36.0837 33.4142 36.1761 33.5469C36.2685 33.6797 36.3918 33.788 36.5353 33.8627C36.6788 33.9373 36.8382 33.976 37 33.9755H44C44.1892 33.9749 44.3748 34.0279 44.535 34.1285C44.6953 34.2291 44.8238 34.3731 44.9054 34.5438C44.9871 34.7145 45.0187 34.9049 44.9965 35.0928C44.9743 35.2808 44.8992 35.4585 44.78 35.6055L34.88 45.8055C34.8057 45.8912 34.7045 45.9491 34.593 45.9698C34.4815 45.9904 34.3663 45.9725 34.2663 45.919C34.1663 45.8655 34.0874 45.7796 34.0427 45.6754C33.9979 45.5712 33.9899 45.4549 34.02 45.3455L35.94 39.3255C35.9966 39.174 36.0156 39.011 35.9954 38.8505C35.9752 38.69 35.9163 38.5368 35.8239 38.4041C35.7315 38.2713 35.6082 38.163 35.4647 38.0883C35.3212 38.0137 35.1617 37.975 35 37.9755H28Z" fill="white" stroke="white" stroke-width="2" stroke-linecap="round" stroke-linejoin="round"/>
</g>
<g opacity="0.382964">
<mask id="path-4-inside-2_1_12" fill="white">
<path d="M0.0245056 35.9755C0.0245056 16.1068 16.1313 0 36 0C55.8687 0 71.9755 16.1068 71.9755 35.9755C71.9755 55.8442 55.8687 71.951 36 71.951C16.1313 71.951 0.0245056 55.8442 0.0245056 35.9755Z"/>
</mask>
<path d="M36 71.951V69.951C17.2359 69.951 2.02451 54.7396 2.02451 35.9755H0.0245056H-1.97549C-1.97549 56.9488 15.0267 73.951 36 73.951V71.951ZM71.9755 35.9755H69.9755C69.9755 54.7396 54.7641 69.951 36 69.951V71.951V73.951C56.9733 73.951 73.9755 56.9488 73.9755 35.9755H71.9755ZM36 0V2C54.7641 2 69.9755 17.2114 69.9755 35.9755H71.9755H73.9755C73.9755 15.0022 56.9733 -2 36 -2V0ZM36 0V-2C15.0267 -2 -1.97549 15.0022 -1.97549 35.9755H0.0245056H2.02451C2.02451 17.2114 17.2359 2 36 2V0Z" fill="#B4EC51" mask="url(#path-4-inside-2_1_12)"/>
</g>
<defs>
<filter id="filter0_dd_1_12" x="0" y="9.97549" width="72" height="72" filterUnits="userSpaceOnUse" color-interpolation-filters="sRGB">
<feFlood flood-opacity="0" result="BackgroundImageFix"/>
<feColorMatrix in="SourceAlpha" type="matrix" values="0 0 0 0 0 0 0 0 0 0 0 0 0 0 0 0 0 0 127 0" result="hardAlpha"/>
<feMorphology radius="4" operator="erode" in="SourceAlpha" result="effect1_dropShadow_1_12"/>
<feOffset dy="4"/>
<feGaussianBlur stdDeviation="3"/>
<feComposite in2="hardAlpha" operator="out"/>
<feColorMatrix type="matrix" values="0 0 0 0 0 0 0 0 0 0 0 0 0 0 0 0 0 0 0.1 0"/>
<feBlend mode="normal" in2="BackgroundImageFix" result="effect1_dropShadow_1_12"/>
<feColorMatrix in="SourceAlpha" type="matrix" values="0 0 0 0 0 0 0 0 0 0 0 0 0 0 0 0 0 0 127 0" result="hardAlpha"/>
<feMorphology radius="3" operator="erode" in="SourceAlpha" result="effect2_dropShadow_1_12"/>
<feOffset dy="10"/>
<feGaussianBlur stdDeviation="7.5"/>
<feComposite in2="hardAlpha" operator="out"/>
<feColorMatrix type="matrix" values="0 0 0 0 0 0 0 0 0 0 0 0 0 0 0 0 0 0 0.1 0"/>
<feBlend mode="normal" in2="effect1_dropShadow_1_12" result="effect2_dropShadow_1_12"/>
<feBlend mode="normal" in="SourceGraphic" in2="effect2_dropShadow_1_12" result="shape"/>
</filter>
<linearGradient id="paint0_linear_1_12" x1="36" y1="11.9755" x2="36" y2="59.9755" gradientUnits="userSpaceOnUse">
<stop stop-color="#B4EC51"/>
<stop offset="1" stop-color="#8BC34A"/>
</linearGradient>
</defs>
</svg>
